<?xml version="1.0" encoding="utf-8" standalone="no"?>
<!DOCTYPE svg PUBLIC "-//W3C//DTD SVG 1.1//EN"
  "http://www.w3.org/Graphics/SVG/1.1/DTD/svg11.dtd">
<svg xmlns:xlink="http://www.w3.org/1999/xlink" width="432pt" height="288pt" viewBox="0 0 432 288" xmlns="http://www.w3.org/2000/svg" version="1.1">
 <metadata>
  <rdf:RDF xmlns:dc="http://purl.org/dc/elements/1.1/" xmlns:cc="http://creativecommons.org/ns#" xmlns:rdf="http://www.w3.org/1999/02/22-rdf-syntax-ns#">
   <cc:Work>
    <dc:type rdf:resource="http://purl.org/dc/dcmitype/StillImage"/>
    <dc:date>2025-05-23T23:57:57.954853</dc:date>
    <dc:format>image/svg+xml</dc:format>
    <dc:creator>
     <cc:Agent>
      <dc:title>Matplotlib v3.7.5, https://matplotlib.org/</dc:title>
     </cc:Agent>
    </dc:creator>
   </cc:Work>
  </rdf:RDF>
 </metadata>
 <defs>
  <style type="text/css">*{stroke-linejoin: round; stroke-linecap: butt}</style>
 </defs>
 <g id="figure_1">
  <g id="patch_1">
   <path d="M 0 288 
L 432 288 
L 432 0 
L 0 0 
z
" style="fill: #ffffff"/>
  </g>
  <g id="axes_1">
   <g id="patch_2">
    <path d="M 55.984685 246.04 
L 421.2 246.04 
L 421.2 26.88 
L 55.984685 26.88 
z
" style="fill: #ffffff"/>
   </g>
   <g id="matplotlib.axis_1">
    <g id="xtick_1">
     <g id="line2d_1">
      <path d="M 111.645842 246.04 
L 111.645842 26.88 
" clip-path="url(#pe42762fc7f)" style="fill: none; stroke: #b0b0b0; stroke-width: 0.5; stroke-linecap: square"/>
     </g>
     <g id="line2d_2">
      <defs>
       <path id="me98b43f737" d="M 0 0 
L 0 3.5 
" style="stroke: #000000; stroke-width: 0.8"/>
      </defs>
      <g>
       <use xlink:href="#me98b43f737" x="111.645842" y="246.04" style="stroke: #000000; stroke-width: 0.8"/>
      </g>
     </g>
     <g id="text_1">
      <!-- 20 -->
      <g transform="translate(105.283342 260.638438) scale(0.1 -0.1)">
       <defs>
        <path id="DejaVuSans-32" d="M 1228 531 
L 3431 531 
L 3431 0 
L 469 0 
L 469 531 
Q 828 903 1448 1529 
Q 2069 2156 2228 2338 
Q 2531 2678 2651 2914 
Q 2772 3150 2772 3378 
Q 2772 3750 2511 3984 
Q 2250 4219 1831 4219 
Q 1534 4219 1204 4116 
Q 875 4013 500 3803 
L 500 4441 
Q 881 4594 1212 4672 
Q 1544 4750 1819 4750 
Q 2544 4750 2975 4387 
Q 3406 4025 3406 3419 
Q 3406 3131 3298 2873 
Q 3191 2616 2906 2266 
Q 2828 2175 2409 1742 
Q 1991 1309 1228 531 
z
" transform="scale(0.015625)"/>
        <path id="DejaVuSans-30" d="M 2034 4250 
Q 1547 4250 1301 3770 
Q 1056 3291 1056 2328 
Q 1056 1369 1301 889 
Q 1547 409 2034 409 
Q 2525 409 2770 889 
Q 3016 1369 3016 2328 
Q 3016 3291 2770 3770 
Q 2525 4250 2034 4250 
z
M 2034 4750 
Q 2819 4750 3233 4129 
Q 3647 3509 3647 2328 
Q 3647 1150 3233 529 
Q 2819 -91 2034 -91 
Q 1250 -91 836 529 
Q 422 1150 422 2328 
Q 422 3509 836 4129 
Q 1250 4750 2034 4750 
z
" transform="scale(0.015625)"/>
       </defs>
       <use xlink:href="#DejaVuSans-32"/>
       <use xlink:href="#DejaVuSans-30" x="63.623047"/>
      </g>
     </g>
    </g>
    <g id="xtick_2">
     <g id="line2d_3">
      <path d="M 189.766765 246.04 
L 189.766765 26.88 
" clip-path="url(#pe42762fc7f)" style="fill: none; stroke: #b0b0b0; stroke-width: 0.5; stroke-linecap: square"/>
     </g>
     <g id="line2d_4">
      <g>
       <use xlink:href="#me98b43f737" x="189.766765" y="246.04" style="stroke: #000000; stroke-width: 0.8"/>
      </g>
     </g>
     <g id="text_2">
      <!-- 40 -->
      <g transform="translate(183.404265 260.638438) scale(0.1 -0.1)">
       <defs>
        <path id="DejaVuSans-34" d="M 2419 4116 
L 825 1625 
L 2419 1625 
L 2419 4116 
z
M 2253 4666 
L 3047 4666 
L 3047 1625 
L 3713 1625 
L 3713 1100 
L 3047 1100 
L 3047 0 
L 2419 0 
L 2419 1100 
L 313 1100 
L 313 1709 
L 2253 4666 
z
" transform="scale(0.015625)"/>
       </defs>
       <use xlink:href="#DejaVuSans-34"/>
       <use xlink:href="#DejaVuSans-30" x="63.623047"/>
      </g>
     </g>
    </g>
    <g id="xtick_3">
     <g id="line2d_5">
      <path d="M 267.887689 246.04 
L 267.887689 26.88 
" clip-path="url(#pe42762fc7f)" style="fill: none; stroke: #b0b0b0; stroke-width: 0.5; stroke-linecap: square"/>
     </g>
     <g id="line2d_6">
      <g>
       <use xlink:href="#me98b43f737" x="267.887689" y="246.04" style="stroke: #000000; stroke-width: 0.8"/>
      </g>
     </g>
     <g id="text_3">
      <!-- 60 -->
      <g transform="translate(261.525189 260.638438) scale(0.1 -0.1)">
       <defs>
        <path id="DejaVuSans-36" d="M 2113 2584 
Q 1688 2584 1439 2293 
Q 1191 2003 1191 1497 
Q 1191 994 1439 701 
Q 1688 409 2113 409 
Q 2538 409 2786 701 
Q 3034 994 3034 1497 
Q 3034 2003 2786 2293 
Q 2538 2584 2113 2584 
z
M 3366 4563 
L 3366 3988 
Q 3128 4100 2886 4159 
Q 2644 4219 2406 4219 
Q 1781 4219 1451 3797 
Q 1122 3375 1075 2522 
Q 1259 2794 1537 2939 
Q 1816 3084 2150 3084 
Q 2853 3084 3261 2657 
Q 3669 2231 3669 1497 
Q 3669 778 3244 343 
Q 2819 -91 2113 -91 
Q 1303 -91 875 529 
Q 447 1150 447 2328 
Q 447 3434 972 4092 
Q 1497 4750 2381 4750 
Q 2619 4750 2861 4703 
Q 3103 4656 3366 4563 
z
" transform="scale(0.015625)"/>
       </defs>
       <use xlink:href="#DejaVuSans-36"/>
       <use xlink:href="#DejaVuSans-30" x="63.623047"/>
      </g>
     </g>
    </g>
    <g id="xtick_4">
     <g id="line2d_7">
      <path d="M 346.008612 246.04 
L 346.008612 26.88 
" clip-path="url(#pe42762fc7f)" style="fill: none; stroke: #b0b0b0; stroke-width: 0.5; stroke-linecap: square"/>
     </g>
     <g id="line2d_8">
      <g>
       <use xlink:href="#me98b43f737" x="346.008612" y="246.04" style="stroke: #000000; stroke-width: 0.8"/>
      </g>
     </g>
     <g id="text_4">
      <!-- 80 -->
      <g transform="translate(339.646112 260.638438) scale(0.1 -0.1)">
       <defs>
        <path id="DejaVuSans-38" d="M 2034 2216 
Q 1584 2216 1326 1975 
Q 1069 1734 1069 1313 
Q 1069 891 1326 650 
Q 1584 409 2034 409 
Q 2484 409 2743 651 
Q 3003 894 3003 1313 
Q 3003 1734 2745 1975 
Q 2488 2216 2034 2216 
z
M 1403 2484 
Q 997 2584 770 2862 
Q 544 3141 544 3541 
Q 544 4100 942 4425 
Q 1341 4750 2034 4750 
Q 2731 4750 3128 4425 
Q 3525 4100 3525 3541 
Q 3525 3141 3298 2862 
Q 3072 2584 2669 2484 
Q 3125 2378 3379 2068 
Q 3634 1759 3634 1313 
Q 3634 634 3220 271 
Q 2806 -91 2034 -91 
Q 1263 -91 848 271 
Q 434 634 434 1313 
Q 434 1759 690 2068 
Q 947 2378 1403 2484 
z
M 1172 3481 
Q 1172 3119 1398 2916 
Q 1625 2713 2034 2713 
Q 2441 2713 2670 2916 
Q 2900 3119 2900 3481 
Q 2900 3844 2670 4047 
Q 2441 4250 2034 4250 
Q 1625 4250 1398 4047 
Q 1172 3844 1172 3481 
z
" transform="scale(0.015625)"/>
       </defs>
       <use xlink:href="#DejaVuSans-38"/>
       <use xlink:href="#DejaVuSans-30" x="63.623047"/>
      </g>
     </g>
    </g>
    <g id="text_5">
     <!-- Outer dimension (µm) -->
     <g transform="translate(183.363436 274.316562) scale(0.1 -0.1)">
      <defs>
       <path id="DejaVuSans-4f" d="M 2522 4238 
Q 1834 4238 1429 3725 
Q 1025 3213 1025 2328 
Q 1025 1447 1429 934 
Q 1834 422 2522 422 
Q 3209 422 3611 934 
Q 4013 1447 4013 2328 
Q 4013 3213 3611 3725 
Q 3209 4238 2522 4238 
z
M 2522 4750 
Q 3503 4750 4090 4092 
Q 4678 3434 4678 2328 
Q 4678 1225 4090 567 
Q 3503 -91 2522 -91 
Q 1538 -91 948 565 
Q 359 1222 359 2328 
Q 359 3434 948 4092 
Q 1538 4750 2522 4750 
z
" transform="scale(0.015625)"/>
       <path id="DejaVuSans-75" d="M 544 1381 
L 544 3500 
L 1119 3500 
L 1119 1403 
Q 1119 906 1312 657 
Q 1506 409 1894 409 
Q 2359 409 2629 706 
Q 2900 1003 2900 1516 
L 2900 3500 
L 3475 3500 
L 3475 0 
L 2900 0 
L 2900 538 
Q 2691 219 2414 64 
Q 2138 -91 1772 -91 
Q 1169 -91 856 284 
Q 544 659 544 1381 
z
M 1991 3584 
L 1991 3584 
z
" transform="scale(0.015625)"/>
       <path id="DejaVuSans-74" d="M 1172 4494 
L 1172 3500 
L 2356 3500 
L 2356 3053 
L 1172 3053 
L 1172 1153 
Q 1172 725 1289 603 
Q 1406 481 1766 481 
L 2356 481 
L 2356 0 
L 1766 0 
Q 1100 0 847 248 
Q 594 497 594 1153 
L 594 3053 
L 172 3053 
L 172 3500 
L 594 3500 
L 594 4494 
L 1172 4494 
z
" transform="scale(0.015625)"/>
       <path id="DejaVuSans-65" d="M 3597 1894 
L 3597 1613 
L 953 1613 
Q 991 1019 1311 708 
Q 1631 397 2203 397 
Q 2534 397 2845 478 
Q 3156 559 3463 722 
L 3463 178 
Q 3153 47 2828 -22 
Q 2503 -91 2169 -91 
Q 1331 -91 842 396 
Q 353 884 353 1716 
Q 353 2575 817 3079 
Q 1281 3584 2069 3584 
Q 2775 3584 3186 3129 
Q 3597 2675 3597 1894 
z
M 3022 2063 
Q 3016 2534 2758 2815 
Q 2500 3097 2075 3097 
Q 1594 3097 1305 2825 
Q 1016 2553 972 2059 
L 3022 2063 
z
" transform="scale(0.015625)"/>
       <path id="DejaVuSans-72" d="M 2631 2963 
Q 2534 3019 2420 3045 
Q 2306 3072 2169 3072 
Q 1681 3072 1420 2755 
Q 1159 2438 1159 1844 
L 1159 0 
L 581 0 
L 581 3500 
L 1159 3500 
L 1159 2956 
Q 1341 3275 1631 3429 
Q 1922 3584 2338 3584 
Q 2397 3584 2469 3576 
Q 2541 3569 2628 3553 
L 2631 2963 
z
" transform="scale(0.015625)"/>
       <path id="DejaVuSans-20" transform="scale(0.015625)"/>
       <path id="DejaVuSans-64" d="M 2906 2969 
L 2906 4863 
L 3481 4863 
L 3481 0 
L 2906 0 
L 2906 525 
Q 2725 213 2448 61 
Q 2172 -91 1784 -91 
Q 1150 -91 751 415 
Q 353 922 353 1747 
Q 353 2572 751 3078 
Q 1150 3584 1784 3584 
Q 2172 3584 2448 3432 
Q 2725 3281 2906 2969 
z
M 947 1747 
Q 947 1113 1208 752 
Q 1469 391 1925 391 
Q 2381 391 2643 752 
Q 2906 1113 2906 1747 
Q 2906 2381 2643 2742 
Q 2381 3103 1925 3103 
Q 1469 3103 1208 2742 
Q 947 2381 947 1747 
z
" transform="scale(0.015625)"/>
       <path id="DejaVuSans-69" d="M 603 3500 
L 1178 3500 
L 1178 0 
L 603 0 
L 603 3500 
z
M 603 4863 
L 1178 4863 
L 1178 4134 
L 603 4134 
L 603 4863 
z
" transform="scale(0.015625)"/>
       <path id="DejaVuSans-6d" d="M 3328 2828 
Q 3544 3216 3844 3400 
Q 4144 3584 4550 3584 
Q 5097 3584 5394 3201 
Q 5691 2819 5691 2113 
L 5691 0 
L 5113 0 
L 5113 2094 
Q 5113 2597 4934 2840 
Q 4756 3084 4391 3084 
Q 3944 3084 3684 2787 
Q 3425 2491 3425 1978 
L 3425 0 
L 2847 0 
L 2847 2094 
Q 2847 2600 2669 2842 
Q 2491 3084 2119 3084 
Q 1678 3084 1418 2786 
Q 1159 2488 1159 1978 
L 1159 0 
L 581 0 
L 581 3500 
L 1159 3500 
L 1159 2956 
Q 1356 3278 1631 3431 
Q 1906 3584 2284 3584 
Q 2666 3584 2933 3390 
Q 3200 3197 3328 2828 
z
" transform="scale(0.015625)"/>
       <path id="DejaVuSans-6e" d="M 3513 2113 
L 3513 0 
L 2938 0 
L 2938 2094 
Q 2938 2591 2744 2837 
Q 2550 3084 2163 3084 
Q 1697 3084 1428 2787 
Q 1159 2491 1159 1978 
L 1159 0 
L 581 0 
L 581 3500 
L 1159 3500 
L 1159 2956 
Q 1366 3272 1645 3428 
Q 1925 3584 2291 3584 
Q 2894 3584 3203 3211 
Q 3513 2838 3513 2113 
z
" transform="scale(0.015625)"/>
       <path id="DejaVuSans-73" d="M 2834 3397 
L 2834 2853 
Q 2591 2978 2328 3040 
Q 2066 3103 1784 3103 
Q 1356 3103 1142 2972 
Q 928 2841 928 2578 
Q 928 2378 1081 2264 
Q 1234 2150 1697 2047 
L 1894 2003 
Q 2506 1872 2764 1633 
Q 3022 1394 3022 966 
Q 3022 478 2636 193 
Q 2250 -91 1575 -91 
Q 1294 -91 989 -36 
Q 684 19 347 128 
L 347 722 
Q 666 556 975 473 
Q 1284 391 1588 391 
Q 1994 391 2212 530 
Q 2431 669 2431 922 
Q 2431 1156 2273 1281 
Q 2116 1406 1581 1522 
L 1381 1569 
Q 847 1681 609 1914 
Q 372 2147 372 2553 
Q 372 3047 722 3315 
Q 1072 3584 1716 3584 
Q 2034 3584 2315 3537 
Q 2597 3491 2834 3397 
z
" transform="scale(0.015625)"/>
       <path id="DejaVuSans-6f" d="M 1959 3097 
Q 1497 3097 1228 2736 
Q 959 2375 959 1747 
Q 959 1119 1226 758 
Q 1494 397 1959 397 
Q 2419 397 2687 759 
Q 2956 1122 2956 1747 
Q 2956 2369 2687 2733 
Q 2419 3097 1959 3097 
z
M 1959 3584 
Q 2709 3584 3137 3096 
Q 3566 2609 3566 1747 
Q 3566 888 3137 398 
Q 2709 -91 1959 -91 
Q 1206 -91 779 398 
Q 353 888 353 1747 
Q 353 2609 779 3096 
Q 1206 3584 1959 3584 
z
" transform="scale(0.015625)"/>
       <path id="DejaVuSans-28" d="M 1984 4856 
Q 1566 4138 1362 3434 
Q 1159 2731 1159 2009 
Q 1159 1288 1364 580 
Q 1569 -128 1984 -844 
L 1484 -844 
Q 1016 -109 783 600 
Q 550 1309 550 2009 
Q 550 2706 781 3412 
Q 1013 4119 1484 4856 
L 1984 4856 
z
" transform="scale(0.015625)"/>
       <path id="DejaVuSans-b5" d="M 544 -1331 
L 544 3500 
L 1119 3500 
L 1119 1325 
Q 1119 872 1334 640 
Q 1550 409 1972 409 
Q 2434 409 2667 671 
Q 2900 934 2900 1459 
L 2900 3500 
L 3475 3500 
L 3475 806 
Q 3475 619 3529 530 
Q 3584 441 3700 441 
Q 3728 441 3778 458 
Q 3828 475 3916 513 
L 3916 50 
Q 3788 -22 3673 -56 
Q 3559 -91 3450 -91 
Q 3234 -91 3106 31 
Q 2978 153 2931 403 
Q 2775 156 2548 32 
Q 2322 -91 2016 -91 
Q 1697 -91 1473 31 
Q 1250 153 1119 397 
L 1119 -1331 
L 544 -1331 
z
" transform="scale(0.015625)"/>
       <path id="DejaVuSans-29" d="M 513 4856 
L 1013 4856 
Q 1481 4119 1714 3412 
Q 1947 2706 1947 2009 
Q 1947 1309 1714 600 
Q 1481 -109 1013 -844 
L 513 -844 
Q 928 -128 1133 580 
Q 1338 1288 1338 2009 
Q 1338 2731 1133 3434 
Q 928 4138 513 4856 
z
" transform="scale(0.015625)"/>
      </defs>
      <use xlink:href="#DejaVuSans-4f"/>
      <use xlink:href="#DejaVuSans-75" x="78.710938"/>
      <use xlink:href="#DejaVuSans-74" x="142.089844"/>
      <use xlink:href="#DejaVuSans-65" x="181.298828"/>
      <use xlink:href="#DejaVuSans-72" x="242.822266"/>
      <use xlink:href="#DejaVuSans-20" x="283.935547"/>
      <use xlink:href="#DejaVuSans-64" x="315.722656"/>
      <use xlink:href="#DejaVuSans-69" x="379.199219"/>
      <use xlink:href="#DejaVuSans-6d" x="406.982422"/>
      <use xlink:href="#DejaVuSans-65" x="504.394531"/>
      <use xlink:href="#DejaVuSans-6e" x="565.917969"/>
      <use xlink:href="#DejaVuSans-73" x="629.296875"/>
      <use xlink:href="#DejaVuSans-69" x="681.396484"/>
      <use xlink:href="#DejaVuSans-6f" x="709.179688"/>
      <use xlink:href="#DejaVuSans-6e" x="770.361328"/>
      <use xlink:href="#DejaVuSans-20" x="833.740234"/>
      <use xlink:href="#DejaVuSans-28" x="865.527344"/>
      <use xlink:href="#DejaVuSans-b5" x="904.541016"/>
      <use xlink:href="#DejaVuSans-6d" x="968.164062"/>
      <use xlink:href="#DejaVuSans-29" x="1065.576172"/>
     </g>
    </g>
   </g>
   <g id="matplotlib.axis_2">
    <g id="ytick_1">
     <g id="line2d_9">
      <path d="M 55.984685 210.883292 
L 421.2 210.883292 
" clip-path="url(#pe42762fc7f)" style="fill: none; stroke: #b0b0b0; stroke-width: 0.5; stroke-linecap: square"/>
     </g>
     <g id="line2d_10">
      <defs>
       <path id="m3d1a8f221e" d="M 0 0 
L -3.5 0 
" style="stroke: #000000; stroke-width: 0.8"/>
      </defs>
      <g>
       <use xlink:href="#m3d1a8f221e" x="55.984685" y="210.883292" style="stroke: #000000; stroke-width: 0.8"/>
      </g>
     </g>
     <g id="text_6">
      <!-- $\mathdefault{10^{1}}$ -->
      <g transform="translate(31.384685 214.682511) scale(0.1 -0.1)">
       <defs>
        <path id="DejaVuSans-31" d="M 794 531 
L 1825 531 
L 1825 4091 
L 703 3866 
L 703 4441 
L 1819 4666 
L 2450 4666 
L 2450 531 
L 3481 531 
L 3481 0 
L 794 0 
L 794 531 
z
" transform="scale(0.015625)"/>
       </defs>
       <use xlink:href="#DejaVuSans-31" transform="translate(0 0.684375)"/>
       <use xlink:href="#DejaVuSans-30" transform="translate(63.623047 0.684375)"/>
       <use xlink:href="#DejaVuSans-31" transform="translate(128.203125 38.965625) scale(0.7)"/>
      </g>
     </g>
    </g>
    <g id="ytick_2">
     <g id="line2d_11">
      <path d="M 55.984685 61.837249 
L 421.2 61.837249 
" clip-path="url(#pe42762fc7f)" style="fill: none; stroke: #b0b0b0; stroke-width: 0.5; stroke-linecap: square"/>
     </g>
     <g id="line2d_12">
      <g>
       <use xlink:href="#m3d1a8f221e" x="55.984685" y="61.837249" style="stroke: #000000; stroke-width: 0.8"/>
      </g>
     </g>
     <g id="text_7">
      <!-- $\mathdefault{10^{2}}$ -->
      <g transform="translate(31.384685 65.636468) scale(0.1 -0.1)">
       <use xlink:href="#DejaVuSans-31" transform="translate(0 0.765625)"/>
       <use xlink:href="#DejaVuSans-30" transform="translate(63.623047 0.765625)"/>
       <use xlink:href="#DejaVuSans-32" transform="translate(128.203125 39.046875) scale(0.7)"/>
      </g>
     </g>
    </g>
    <g id="ytick_3">
     <g id="line2d_13">
      <path d="M 55.984685 243.948971 
L 421.2 243.948971 
" clip-path="url(#pe42762fc7f)" style="fill: none; stroke: #b0b0b0; stroke-width: 0.3; stroke-linecap: square"/>
     </g>
     <g id="line2d_14">
      <defs>
       <path id="mce8b062f3a" d="M 0 0 
L -2 0 
" style="stroke: #000000; stroke-width: 0.6"/>
      </defs>
      <g>
       <use xlink:href="#mce8b062f3a" x="55.984685" y="243.948971" style="stroke: #000000; stroke-width: 0.6"/>
      </g>
     </g>
    </g>
    <g id="ytick_4">
     <g id="line2d_15">
      <path d="M 55.984685 233.970817 
L 421.2 233.970817 
" clip-path="url(#pe42762fc7f)" style="fill: none; stroke: #b0b0b0; stroke-width: 0.3; stroke-linecap: square"/>
     </g>
     <g id="line2d_16">
      <g>
       <use xlink:href="#mce8b062f3a" x="55.984685" y="233.970817" style="stroke: #000000; stroke-width: 0.6"/>
      </g>
     </g>
    </g>
    <g id="ytick_5">
     <g id="line2d_17">
      <path d="M 55.984685 225.327346 
L 421.2 225.327346 
" clip-path="url(#pe42762fc7f)" style="fill: none; stroke: #b0b0b0; stroke-width: 0.3; stroke-linecap: square"/>
     </g>
     <g id="line2d_18">
      <g>
       <use xlink:href="#mce8b062f3a" x="55.984685" y="225.327346" style="stroke: #000000; stroke-width: 0.6"/>
      </g>
     </g>
    </g>
    <g id="ytick_6">
     <g id="line2d_19">
      <path d="M 55.984685 217.703265 
L 421.2 217.703265 
" clip-path="url(#pe42762fc7f)" style="fill: none; stroke: #b0b0b0; stroke-width: 0.3; stroke-linecap: square"/>
     </g>
     <g id="line2d_20">
      <g>
       <use xlink:href="#mce8b062f3a" x="55.984685" y="217.703265" style="stroke: #000000; stroke-width: 0.6"/>
      </g>
     </g>
    </g>
    <g id="ytick_7">
     <g id="line2d_21">
      <path d="M 55.984685 166.015963 
L 421.2 166.015963 
" clip-path="url(#pe42762fc7f)" style="fill: none; stroke: #b0b0b0; stroke-width: 0.3; stroke-linecap: square"/>
     </g>
     <g id="line2d_22">
      <g>
       <use xlink:href="#mce8b062f3a" x="55.984685" y="166.015963" style="stroke: #000000; stroke-width: 0.6"/>
      </g>
     </g>
    </g>
    <g id="ytick_8">
     <g id="line2d_23">
      <path d="M 55.984685 139.770257 
L 421.2 139.770257 
" clip-path="url(#pe42762fc7f)" style="fill: none; stroke: #b0b0b0; stroke-width: 0.3; stroke-linecap: square"/>
     </g>
     <g id="line2d_24">
      <g>
       <use xlink:href="#mce8b062f3a" x="55.984685" y="139.770257" style="stroke: #000000; stroke-width: 0.6"/>
      </g>
     </g>
    </g>
    <g id="ytick_9">
     <g id="line2d_25">
      <path d="M 55.984685 121.148633 
L 421.2 121.148633 
" clip-path="url(#pe42762fc7f)" style="fill: none; stroke: #b0b0b0; stroke-width: 0.3; stroke-linecap: square"/>
     </g>
     <g id="line2d_26">
      <g>
       <use xlink:href="#mce8b062f3a" x="55.984685" y="121.148633" style="stroke: #000000; stroke-width: 0.6"/>
      </g>
     </g>
    </g>
    <g id="ytick_10">
     <g id="line2d_27">
      <path d="M 55.984685 106.704579 
L 421.2 106.704579 
" clip-path="url(#pe42762fc7f)" style="fill: none; stroke: #b0b0b0; stroke-width: 0.3; stroke-linecap: square"/>
     </g>
     <g id="line2d_28">
      <g>
       <use xlink:href="#mce8b062f3a" x="55.984685" y="106.704579" style="stroke: #000000; stroke-width: 0.6"/>
      </g>
     </g>
    </g>
    <g id="ytick_11">
     <g id="line2d_29">
      <path d="M 55.984685 94.902927 
L 421.2 94.902927 
" clip-path="url(#pe42762fc7f)" style="fill: none; stroke: #b0b0b0; stroke-width: 0.3; stroke-linecap: square"/>
     </g>
     <g id="line2d_30">
      <g>
       <use xlink:href="#mce8b062f3a" x="55.984685" y="94.902927" style="stroke: #000000; stroke-width: 0.6"/>
      </g>
     </g>
    </g>
    <g id="ytick_12">
     <g id="line2d_31">
      <path d="M 55.984685 84.924773 
L 421.2 84.924773 
" clip-path="url(#pe42762fc7f)" style="fill: none; stroke: #b0b0b0; stroke-width: 0.3; stroke-linecap: square"/>
     </g>
     <g id="line2d_32">
      <g>
       <use xlink:href="#mce8b062f3a" x="55.984685" y="84.924773" style="stroke: #000000; stroke-width: 0.6"/>
      </g>
     </g>
    </g>
    <g id="ytick_13">
     <g id="line2d_33">
      <path d="M 55.984685 76.281303 
L 421.2 76.281303 
" clip-path="url(#pe42762fc7f)" style="fill: none; stroke: #b0b0b0; stroke-width: 0.3; stroke-linecap: square"/>
     </g>
     <g id="line2d_34">
      <g>
       <use xlink:href="#mce8b062f3a" x="55.984685" y="76.281303" style="stroke: #000000; stroke-width: 0.6"/>
      </g>
     </g>
    </g>
    <g id="ytick_14">
     <g id="line2d_35">
      <path d="M 55.984685 68.657222 
L 421.2 68.657222 
" clip-path="url(#pe42762fc7f)" style="fill: none; stroke: #b0b0b0; stroke-width: 0.3; stroke-linecap: square"/>
     </g>
     <g id="line2d_36">
      <g>
       <use xlink:href="#mce8b062f3a" x="55.984685" y="68.657222" style="stroke: #000000; stroke-width: 0.6"/>
      </g>
     </g>
    </g>
    <g id="text_8">
     <!-- $\sqrt{S_\Phi(1\ \mathrm{Hz})}$  (µ$\Phi_0$/√Hz) -->
     <g transform="translate(25.284685 190.31) rotate(-90) scale(0.1 -0.1)">
      <defs>
       <path id="STIXSizeOneSym-Regular-221a" d="M 6970 9933 
L 3373 -1888 
L 3104 -1888 
L 1626 2918 
Q 1555 3149 1465 3251 
Q 1376 3354 1229 3354 
Q 1011 3354 794 3181 
L 717 3309 
L 1766 4115 
L 1926 4115 
L 3379 -602 
L 3405 -602 
L 6605 9933 
L 6970 9933 
z
" transform="scale(0.015625)"/>
       <path id="DejaVuSans-Oblique-53" d="M 3859 4513 
L 3738 3897 
Q 3422 4066 3111 4152 
Q 2800 4238 2509 4238 
Q 1944 4238 1609 3991 
Q 1275 3744 1275 3334 
Q 1275 3109 1398 2989 
Q 1522 2869 2034 2731 
L 2413 2638 
Q 3053 2472 3303 2217 
Q 3553 1963 3553 1503 
Q 3553 797 2998 353 
Q 2444 -91 1538 -91 
Q 1166 -91 791 -17 
Q 416 56 38 206 
L 166 856 
Q 513 641 861 531 
Q 1209 422 1556 422 
Q 2147 422 2503 684 
Q 2859 947 2859 1369 
Q 2859 1650 2717 1795 
Q 2575 1941 2106 2059 
L 1728 2156 
Q 1081 2325 845 2545 
Q 609 2766 609 3163 
Q 609 3859 1145 4304 
Q 1681 4750 2541 4750 
Q 2875 4750 3203 4690 
Q 3531 4631 3859 4513 
z
" transform="scale(0.015625)"/>
       <path id="DejaVuSans-3a6" d="M 2206 3644 
Q 1738 3578 1431 3306 
Q 1025 2947 1025 2328 
Q 1025 1713 1431 1353 
Q 1738 1081 2206 1016 
L 2206 3644 
z
M 2838 1016 
Q 3306 1081 3613 1353 
Q 4013 1713 4013 2328 
Q 4013 2947 3613 3306 
Q 3306 3578 2838 3644 
L 2838 1016 
z
M 2206 494 
Q 1444 563 950 981 
Q 359 1481 359 2328 
Q 359 3175 950 3678 
Q 1441 4100 2206 4169 
L 2206 4666 
L 2838 4666 
L 2838 4169 
Q 3600 4097 4091 3678 
Q 4678 3175 4678 2328 
Q 4678 1484 4091 981 
Q 3600 563 2838 491 
L 2838 0 
L 2206 0 
L 2206 494 
z
" transform="scale(0.015625)"/>
       <path id="DejaVuSans-48" d="M 628 4666 
L 1259 4666 
L 1259 2753 
L 3553 2753 
L 3553 4666 
L 4184 4666 
L 4184 0 
L 3553 0 
L 3553 2222 
L 1259 2222 
L 1259 0 
L 628 0 
L 628 4666 
z
" transform="scale(0.015625)"/>
       <path id="DejaVuSans-7a" d="M 353 3500 
L 3084 3500 
L 3084 2975 
L 922 459 
L 3084 459 
L 3084 0 
L 275 0 
L 275 525 
L 2438 3041 
L 353 3041 
L 353 3500 
z
" transform="scale(0.015625)"/>
       <path id="DejaVuSans-2f" d="M 1625 4666 
L 2156 4666 
L 531 -594 
L 0 -594 
L 1625 4666 
z
" transform="scale(0.015625)"/>
       <path id="DejaVuSans-221a" d="M 3488 5191 
L 4078 5191 
L 4078 4891 
L 3719 4891 
L 1863 -128 
L 1656 -128 
L 659 2631 
L 269 2491 
L 191 2741 
L 1075 3047 
L 1875 831 
L 3488 5191 
z
" transform="scale(0.015625)"/>
      </defs>
      <use xlink:href="#STIXSizeOneSym-Regular-221a" transform="translate(0 4.015625) scale(0.66881)"/>
      <use xlink:href="#DejaVuSans-Oblique-53" transform="translate(83.186874 0.875)"/>
      <use xlink:href="#DejaVuSans-3a6" transform="translate(146.663437 -15.53125) scale(0.7)"/>
      <use xlink:href="#DejaVuSans-28" transform="translate(204.495468 0.875)"/>
      <use xlink:href="#DejaVuSans-31" transform="translate(243.50914 0.875)"/>
      <use xlink:href="#DejaVuSans-48" transform="translate(339.602565 0.875)"/>
      <use xlink:href="#DejaVuSans-7a" transform="translate(414.797878 0.875)"/>
      <use xlink:href="#DejaVuSans-29" transform="translate(467.288112 0.875)"/>
      <use xlink:href="#DejaVuSans-20" transform="translate(518.801784 0.65625)"/>
      <use xlink:href="#DejaVuSans-20" transform="translate(550.588893 0.65625)"/>
      <use xlink:href="#DejaVuSans-28" transform="translate(582.376003 0.65625)"/>
      <use xlink:href="#DejaVuSans-b5" transform="translate(621.389675 0.65625)"/>
      <use xlink:href="#DejaVuSans-3a6" transform="translate(685.012722 0.65625)"/>
      <use xlink:href="#DejaVuSans-30" transform="translate(764.68069 -15.75) scale(0.7)"/>
      <use xlink:href="#DejaVuSans-2f" transform="translate(811.951198 0.65625)"/>
      <use xlink:href="#DejaVuSans-221a" transform="translate(845.642604 0.65625)"/>
      <use xlink:href="#DejaVuSans-48" transform="translate(909.363307 0.65625)"/>
      <use xlink:href="#DejaVuSans-7a" transform="translate(984.55862 0.65625)"/>
      <use xlink:href="#DejaVuSans-29" transform="translate(1037.048854 0.65625)"/>
      <path d="M 70.686874 101.5 
L 70.686874 107.75 
L 518.801784 107.75 
L 518.801784 101.5 
L 70.686874 101.5 
z
"/>
     </g>
    </g>
   </g>
   <g id="line2d_37">
    <path d="M 72.585381 179.439879 
L 92.115612 161.338273 
L 111.645842 146.106677 
L 131.176073 124.309566 
L 150.706304 150.631057 
L 170.236535 113.091742 
L 189.766765 118.076842 
L 209.296996 107.512574 
L 228.827227 83.078023 
L 248.357458 82.350805 
L 267.887689 68.787089 
L 287.417919 100.077629 
L 306.94815 47.798163 
L 326.478381 93.633707 
L 346.008612 97.885718 
L 365.538842 38.596331 
L 385.069073 64.036353 
L 404.599304 74.43142 
" clip-path="url(#pe42762fc7f)" style="fill: none; stroke: #1f77b4; stroke-width: 1.5; stroke-linecap: square"/>
    <defs>
     <path id="m110390acfc" d="M 0 3 
C 0.795609 3 1.55874 2.683901 2.12132 2.12132 
C 2.683901 1.55874 3 0.795609 3 0 
C 3 -0.795609 2.683901 -1.55874 2.12132 -2.12132 
C 1.55874 -2.683901 0.795609 -3 0 -3 
C -0.795609 -3 -1.55874 -2.683901 -2.12132 -2.12132 
C -2.683901 -1.55874 -3 -0.795609 -3 0 
C -3 0.795609 -2.683901 1.55874 -2.12132 2.12132 
C -1.55874 2.683901 -0.795609 3 0 3 
z
" style="stroke: #1f77b4"/>
    </defs>
    <g clip-path="url(#pe42762fc7f)">
     <use xlink:href="#m110390acfc" x="72.585381" y="179.439879" style="fill: #1f77b4; stroke: #1f77b4"/>
     <use xlink:href="#m110390acfc" x="92.115612" y="161.338273" style="fill: #1f77b4; stroke: #1f77b4"/>
     <use xlink:href="#m110390acfc" x="111.645842" y="146.106677" style="fill: #1f77b4; stroke: #1f77b4"/>
     <use xlink:href="#m110390acfc" x="131.176073" y="124.309566" style="fill: #1f77b4; stroke: #1f77b4"/>
     <use xlink:href="#m110390acfc" x="150.706304" y="150.631057" style="fill: #1f77b4; stroke: #1f77b4"/>
     <use xlink:href="#m110390acfc" x="170.236535" y="113.091742" style="fill: #1f77b4; stroke: #1f77b4"/>
     <use xlink:href="#m110390acfc" x="189.766765" y="118.076842" style="fill: #1f77b4; stroke: #1f77b4"/>
     <use xlink:href="#m110390acfc" x="209.296996" y="107.512574" style="fill: #1f77b4; stroke: #1f77b4"/>
     <use xlink:href="#m110390acfc" x="228.827227" y="83.078023" style="fill: #1f77b4; stroke: #1f77b4"/>
     <use xlink:href="#m110390acfc" x="248.357458" y="82.350805" style="fill: #1f77b4; stroke: #1f77b4"/>
     <use xlink:href="#m110390acfc" x="267.887689" y="68.787089" style="fill: #1f77b4; stroke: #1f77b4"/>
     <use xlink:href="#m110390acfc" x="287.417919" y="100.077629" style="fill: #1f77b4; stroke: #1f77b4"/>
     <use xlink:href="#m110390acfc" x="306.94815" y="47.798163" style="fill: #1f77b4; stroke: #1f77b4"/>
     <use xlink:href="#m110390acfc" x="326.478381" y="93.633707" style="fill: #1f77b4; stroke: #1f77b4"/>
     <use xlink:href="#m110390acfc" x="346.008612" y="97.885718" style="fill: #1f77b4; stroke: #1f77b4"/>
     <use xlink:href="#m110390acfc" x="365.538842" y="38.596331" style="fill: #1f77b4; stroke: #1f77b4"/>
     <use xlink:href="#m110390acfc" x="385.069073" y="64.036353" style="fill: #1f77b4; stroke: #1f77b4"/>
     <use xlink:href="#m110390acfc" x="404.599304" y="74.43142" style="fill: #1f77b4; stroke: #1f77b4"/>
    </g>
   </g>
   <g id="line2d_38">
    <path d="M 72.585381 200.119752 
L 92.115612 154.344093 
L 111.645842 155.851925 
L 131.176073 112.398699 
L 150.706304 146.838052 
L 170.236535 77.552831 
L 189.766765 125.704024 
L 209.296996 71.568379 
L 228.827227 69.69671 
L 248.357458 102.416587 
L 267.887689 91.359021 
L 287.417919 94.622439 
L 306.94815 78.814679 
L 326.478381 96.979308 
L 346.008612 53.034841 
L 365.538842 57.577364 
L 385.069073 36.841818 
L 404.599304 61.215436 
" clip-path="url(#pe42762fc7f)" style="fill: none; stroke: #ff7f0e; stroke-width: 1.5; stroke-linecap: square"/>
    <defs>
     <path id="m40f743efb3" d="M 0 3 
C 0.795609 3 1.55874 2.683901 2.12132 2.12132 
C 2.683901 1.55874 3 0.795609 3 0 
C 3 -0.795609 2.683901 -1.55874 2.12132 -2.12132 
C 1.55874 -2.683901 0.795609 -3 0 -3 
C -0.795609 -3 -1.55874 -2.683901 -2.12132 -2.12132 
C -2.683901 -1.55874 -3 -0.795609 -3 0 
C -3 0.795609 -2.683901 1.55874 -2.12132 2.12132 
C -1.55874 2.683901 -0.795609 3 0 3 
z
" style="stroke: #ff7f0e"/>
    </defs>
    <g clip-path="url(#pe42762fc7f)">
     <use xlink:href="#m40f743efb3" x="72.585381" y="200.119752" style="fill: #ff7f0e; stroke: #ff7f0e"/>
     <use xlink:href="#m40f743efb3" x="92.115612" y="154.344093" style="fill: #ff7f0e; stroke: #ff7f0e"/>
     <use xlink:href="#m40f743efb3" x="111.645842" y="155.851925" style="fill: #ff7f0e; stroke: #ff7f0e"/>
     <use xlink:href="#m40f743efb3" x="131.176073" y="112.398699" style="fill: #ff7f0e; stroke: #ff7f0e"/>
     <use xlink:href="#m40f743efb3" x="150.706304" y="146.838052" style="fill: #ff7f0e; stroke: #ff7f0e"/>
     <use xlink:href="#m40f743efb3" x="170.236535" y="77.552831" style="fill: #ff7f0e; stroke: #ff7f0e"/>
     <use xlink:href="#m40f743efb3" x="189.766765" y="125.704024" style="fill: #ff7f0e; stroke: #ff7f0e"/>
     <use xlink:href="#m40f743efb3" x="209.296996" y="71.568379" style="fill: #ff7f0e; stroke: #ff7f0e"/>
     <use xlink:href="#m40f743efb3" x="228.827227" y="69.69671" style="fill: #ff7f0e; stroke: #ff7f0e"/>
     <use xlink:href="#m40f743efb3" x="248.357458" y="102.416587" style="fill: #ff7f0e; stroke: #ff7f0e"/>
     <use xlink:href="#m40f743efb3" x="267.887689" y="91.359021" style="fill: #ff7f0e; stroke: #ff7f0e"/>
     <use xlink:href="#m40f743efb3" x="287.417919" y="94.622439" style="fill: #ff7f0e; stroke: #ff7f0e"/>
     <use xlink:href="#m40f743efb3" x="306.94815" y="78.814679" style="fill: #ff7f0e; stroke: #ff7f0e"/>
     <use xlink:href="#m40f743efb3" x="326.478381" y="96.979308" style="fill: #ff7f0e; stroke: #ff7f0e"/>
     <use xlink:href="#m40f743efb3" x="346.008612" y="53.034841" style="fill: #ff7f0e; stroke: #ff7f0e"/>
     <use xlink:href="#m40f743efb3" x="365.538842" y="57.577364" style="fill: #ff7f0e; stroke: #ff7f0e"/>
     <use xlink:href="#m40f743efb3" x="385.069073" y="36.841818" style="fill: #ff7f0e; stroke: #ff7f0e"/>
     <use xlink:href="#m40f743efb3" x="404.599304" y="61.215436" style="fill: #ff7f0e; stroke: #ff7f0e"/>
    </g>
   </g>
   <g id="line2d_39">
    <path d="M 72.585381 214.668228 
L 92.115612 199.006541 
L 111.645842 186.245908 
L 131.176073 158.309999 
L 150.706304 168.134154 
L 170.236535 145.277948 
L 189.766765 150.464893 
L 209.296996 138.837479 
L 228.827227 140.21884 
L 248.357458 128.191864 
L 267.887689 132.791453 
L 287.417919 113.549583 
L 306.94815 103.947654 
L 326.478381 110.144131 
L 346.008612 95.59473 
L 365.538842 96.444137 
L 385.069073 107.225867 
L 404.599304 98.701068 
" clip-path="url(#pe42762fc7f)" style="fill: none; stroke: #2ca02c; stroke-width: 1.5; stroke-linecap: square"/>
    <defs>
     <path id="m2d3b045b65" d="M 0 3 
C 0.795609 3 1.55874 2.683901 2.12132 2.12132 
C 2.683901 1.55874 3 0.795609 3 0 
C 3 -0.795609 2.683901 -1.55874 2.12132 -2.12132 
C 1.55874 -2.683901 0.795609 -3 0 -3 
C -0.795609 -3 -1.55874 -2.683901 -2.12132 -2.12132 
C -2.683901 -1.55874 -3 -0.795609 -3 0 
C -3 0.795609 -2.683901 1.55874 -2.12132 2.12132 
C -1.55874 2.683901 -0.795609 3 0 3 
z
" style="stroke: #2ca02c"/>
    </defs>
    <g clip-path="url(#pe42762fc7f)">
     <use xlink:href="#m2d3b045b65" x="72.585381" y="214.668228" style="fill: #2ca02c; stroke: #2ca02c"/>
     <use xlink:href="#m2d3b045b65" x="92.115612" y="199.006541" style="fill: #2ca02c; stroke: #2ca02c"/>
     <use xlink:href="#m2d3b045b65" x="111.645842" y="186.245908" style="fill: #2ca02c; stroke: #2ca02c"/>
     <use xlink:href="#m2d3b045b65" x="131.176073" y="158.309999" style="fill: #2ca02c; stroke: #2ca02c"/>
     <use xlink:href="#m2d3b045b65" x="150.706304" y="168.134154" style="fill: #2ca02c; stroke: #2ca02c"/>
     <use xlink:href="#m2d3b045b65" x="170.236535" y="145.277948" style="fill: #2ca02c; stroke: #2ca02c"/>
     <use xlink:href="#m2d3b045b65" x="189.766765" y="150.464893" style="fill: #2ca02c; stroke: #2ca02c"/>
     <use xlink:href="#m2d3b045b65" x="209.296996" y="138.837479" style="fill: #2ca02c; stroke: #2ca02c"/>
     <use xlink:href="#m2d3b045b65" x="228.827227" y="140.21884" style="fill: #2ca02c; stroke: #2ca02c"/>
     <use xlink:href="#m2d3b045b65" x="248.357458" y="128.191864" style="fill: #2ca02c; stroke: #2ca02c"/>
     <use xlink:href="#m2d3b045b65" x="267.887689" y="132.791453" style="fill: #2ca02c; stroke: #2ca02c"/>
     <use xlink:href="#m2d3b045b65" x="287.417919" y="113.549583" style="fill: #2ca02c; stroke: #2ca02c"/>
     <use xlink:href="#m2d3b045b65" x="306.94815" y="103.947654" style="fill: #2ca02c; stroke: #2ca02c"/>
     <use xlink:href="#m2d3b045b65" x="326.478381" y="110.144131" style="fill: #2ca02c; stroke: #2ca02c"/>
     <use xlink:href="#m2d3b045b65" x="346.008612" y="95.59473" style="fill: #2ca02c; stroke: #2ca02c"/>
     <use xlink:href="#m2d3b045b65" x="365.538842" y="96.444137" style="fill: #2ca02c; stroke: #2ca02c"/>
     <use xlink:href="#m2d3b045b65" x="385.069073" y="107.225867" style="fill: #2ca02c; stroke: #2ca02c"/>
     <use xlink:href="#m2d3b045b65" x="404.599304" y="98.701068" style="fill: #2ca02c; stroke: #2ca02c"/>
    </g>
   </g>
   <g id="line2d_40">
    <path d="M 72.585381 236.078182 
L 92.115612 209.30606 
L 111.645842 177.365075 
L 131.176073 149.069002 
L 150.706304 165.443924 
L 170.236535 159.876851 
L 189.766765 154.223846 
L 209.296996 139.455948 
L 228.827227 110.402507 
L 248.357458 112.446911 
L 267.887689 133.507033 
L 287.417919 113.839937 
L 306.94815 79.33556 
L 326.478381 93.403673 
L 346.008612 123.733217 
L 365.538842 90.02315 
L 385.069073 107.111076 
L 404.599304 72.624873 
" clip-path="url(#pe42762fc7f)" style="fill: none; stroke: #d62728; stroke-width: 1.5; stroke-linecap: square"/>
    <defs>
     <path id="m28c441d108" d="M 0 3 
C 0.795609 3 1.55874 2.683901 2.12132 2.12132 
C 2.683901 1.55874 3 0.795609 3 0 
C 3 -0.795609 2.683901 -1.55874 2.12132 -2.12132 
C 1.55874 -2.683901 0.795609 -3 0 -3 
C -0.795609 -3 -1.55874 -2.683901 -2.12132 -2.12132 
C -2.683901 -1.55874 -3 -0.795609 -3 0 
C -3 0.795609 -2.683901 1.55874 -2.12132 2.12132 
C -1.55874 2.683901 -0.795609 3 0 3 
z
" style="stroke: #d62728"/>
    </defs>
    <g clip-path="url(#pe42762fc7f)">
     <use xlink:href="#m28c441d108" x="72.585381" y="236.078182" style="fill: #d62728; stroke: #d62728"/>
     <use xlink:href="#m28c441d108" x="92.115612" y="209.30606" style="fill: #d62728; stroke: #d62728"/>
     <use xlink:href="#m28c441d108" x="111.645842" y="177.365075" style="fill: #d62728; stroke: #d62728"/>
     <use xlink:href="#m28c441d108" x="131.176073" y="149.069002" style="fill: #d62728; stroke: #d62728"/>
     <use xlink:href="#m28c441d108" x="150.706304" y="165.443924" style="fill: #d62728; stroke: #d62728"/>
     <use xlink:href="#m28c441d108" x="170.236535" y="159.876851" style="fill: #d62728; stroke: #d62728"/>
     <use xlink:href="#m28c441d108" x="189.766765" y="154.223846" style="fill: #d62728; stroke: #d62728"/>
     <use xlink:href="#m28c441d108" x="209.296996" y="139.455948" style="fill: #d62728; stroke: #d62728"/>
     <use xlink:href="#m28c441d108" x="228.827227" y="110.402507" style="fill: #d62728; stroke: #d62728"/>
     <use xlink:href="#m28c441d108" x="248.357458" y="112.446911" style="fill: #d62728; stroke: #d62728"/>
     <use xlink:href="#m28c441d108" x="267.887689" y="133.507033" style="fill: #d62728; stroke: #d62728"/>
     <use xlink:href="#m28c441d108" x="287.417919" y="113.839937" style="fill: #d62728; stroke: #d62728"/>
     <use xlink:href="#m28c441d108" x="306.94815" y="79.33556" style="fill: #d62728; stroke: #d62728"/>
     <use xlink:href="#m28c441d108" x="326.478381" y="93.403673" style="fill: #d62728; stroke: #d62728"/>
     <use xlink:href="#m28c441d108" x="346.008612" y="123.733217" style="fill: #d62728; stroke: #d62728"/>
     <use xlink:href="#m28c441d108" x="365.538842" y="90.02315" style="fill: #d62728; stroke: #d62728"/>
     <use xlink:href="#m28c441d108" x="385.069073" y="107.111076" style="fill: #d62728; stroke: #d62728"/>
     <use xlink:href="#m28c441d108" x="404.599304" y="72.624873" style="fill: #d62728; stroke: #d62728"/>
    </g>
   </g>
   <g id="patch_3">
    <path d="M 55.984685 246.04 
L 55.984685 26.88 
" style="fill: none; stroke: #000000; stroke-width: 0.8; stroke-linejoin: miter; stroke-linecap: square"/>
   </g>
   <g id="patch_4">
    <path d="M 421.2 246.04 
L 421.2 26.88 
" style="fill: none; stroke: #000000; stroke-width: 0.8; stroke-linejoin: miter; stroke-linecap: square"/>
   </g>
   <g id="patch_5">
    <path d="M 55.984685 246.04 
L 421.2 246.04 
" style="fill: none; stroke: #000000; stroke-width: 0.8; stroke-linejoin: miter; stroke-linecap: square"/>
   </g>
   <g id="patch_6">
    <path d="M 55.984685 26.88 
L 421.2 26.88 
" style="fill: none; stroke: #000000; stroke-width: 0.8; stroke-linejoin: miter; stroke-linecap: square"/>
   </g>
   <g id="text_9">
    <!-- Simulated flux noise vs washer size -->
    <g transform="translate(131.666717 20.88) scale(0.12 -0.12)">
     <defs>
      <path id="DejaVuSans-53" d="M 3425 4513 
L 3425 3897 
Q 3066 4069 2747 4153 
Q 2428 4238 2131 4238 
Q 1616 4238 1336 4038 
Q 1056 3838 1056 3469 
Q 1056 3159 1242 3001 
Q 1428 2844 1947 2747 
L 2328 2669 
Q 3034 2534 3370 2195 
Q 3706 1856 3706 1288 
Q 3706 609 3251 259 
Q 2797 -91 1919 -91 
Q 1588 -91 1214 -16 
Q 841 59 441 206 
L 441 856 
Q 825 641 1194 531 
Q 1563 422 1919 422 
Q 2459 422 2753 634 
Q 3047 847 3047 1241 
Q 3047 1584 2836 1778 
Q 2625 1972 2144 2069 
L 1759 2144 
Q 1053 2284 737 2584 
Q 422 2884 422 3419 
Q 422 4038 858 4394 
Q 1294 4750 2059 4750 
Q 2388 4750 2728 4690 
Q 3069 4631 3425 4513 
z
" transform="scale(0.015625)"/>
      <path id="DejaVuSans-6c" d="M 603 4863 
L 1178 4863 
L 1178 0 
L 603 0 
L 603 4863 
z
" transform="scale(0.015625)"/>
      <path id="DejaVuSans-61" d="M 2194 1759 
Q 1497 1759 1228 1600 
Q 959 1441 959 1056 
Q 959 750 1161 570 
Q 1363 391 1709 391 
Q 2188 391 2477 730 
Q 2766 1069 2766 1631 
L 2766 1759 
L 2194 1759 
z
M 3341 1997 
L 3341 0 
L 2766 0 
L 2766 531 
Q 2569 213 2275 61 
Q 1981 -91 1556 -91 
Q 1019 -91 701 211 
Q 384 513 384 1019 
Q 384 1609 779 1909 
Q 1175 2209 1959 2209 
L 2766 2209 
L 2766 2266 
Q 2766 2663 2505 2880 
Q 2244 3097 1772 3097 
Q 1472 3097 1187 3025 
Q 903 2953 641 2809 
L 641 3341 
Q 956 3463 1253 3523 
Q 1550 3584 1831 3584 
Q 2591 3584 2966 3190 
Q 3341 2797 3341 1997 
z
" transform="scale(0.015625)"/>
      <path id="DejaVuSans-66" d="M 2375 4863 
L 2375 4384 
L 1825 4384 
Q 1516 4384 1395 4259 
Q 1275 4134 1275 3809 
L 1275 3500 
L 2222 3500 
L 2222 3053 
L 1275 3053 
L 1275 0 
L 697 0 
L 697 3053 
L 147 3053 
L 147 3500 
L 697 3500 
L 697 3744 
Q 697 4328 969 4595 
Q 1241 4863 1831 4863 
L 2375 4863 
z
" transform="scale(0.015625)"/>
      <path id="DejaVuSans-78" d="M 3513 3500 
L 2247 1797 
L 3578 0 
L 2900 0 
L 1881 1375 
L 863 0 
L 184 0 
L 1544 1831 
L 300 3500 
L 978 3500 
L 1906 2253 
L 2834 3500 
L 3513 3500 
z
" transform="scale(0.015625)"/>
      <path id="DejaVuSans-76" d="M 191 3500 
L 800 3500 
L 1894 563 
L 2988 3500 
L 3597 3500 
L 2284 0 
L 1503 0 
L 191 3500 
z
" transform="scale(0.015625)"/>
      <path id="DejaVuSans-77" d="M 269 3500 
L 844 3500 
L 1563 769 
L 2278 3500 
L 2956 3500 
L 3675 769 
L 4391 3500 
L 4966 3500 
L 4050 0 
L 3372 0 
L 2619 2869 
L 1863 0 
L 1184 0 
L 269 3500 
z
" transform="scale(0.015625)"/>
      <path id="DejaVuSans-68" d="M 3513 2113 
L 3513 0 
L 2938 0 
L 2938 2094 
Q 2938 2591 2744 2837 
Q 2550 3084 2163 3084 
Q 1697 3084 1428 2787 
Q 1159 2491 1159 1978 
L 1159 0 
L 581 0 
L 581 4863 
L 1159 4863 
L 1159 2956 
Q 1366 3272 1645 3428 
Q 1925 3584 2291 3584 
Q 2894 3584 3203 3211 
Q 3513 2838 3513 2113 
z
" transform="scale(0.015625)"/>
     </defs>
     <use xlink:href="#DejaVuSans-53"/>
     <use xlink:href="#DejaVuSans-69" x="63.476562"/>
     <use xlink:href="#DejaVuSans-6d" x="91.259766"/>
     <use xlink:href="#DejaVuSans-75" x="188.671875"/>
     <use xlink:href="#DejaVuSans-6c" x="252.050781"/>
     <use xlink:href="#DejaVuSans-61" x="279.833984"/>
     <use xlink:href="#DejaVuSans-74" x="341.113281"/>
     <use xlink:href="#DejaVuSans-65" x="380.322266"/>
     <use xlink:href="#DejaVuSans-64" x="441.845703"/>
     <use xlink:href="#DejaVuSans-20" x="505.322266"/>
     <use xlink:href="#DejaVuSans-66" x="537.109375"/>
     <use xlink:href="#DejaVuSans-6c" x="572.314453"/>
     <use xlink:href="#DejaVuSans-75" x="600.097656"/>
     <use xlink:href="#DejaVuSans-78" x="663.476562"/>
     <use xlink:href="#DejaVuSans-20" x="722.65625"/>
     <use xlink:href="#DejaVuSans-6e" x="754.443359"/>
     <use xlink:href="#DejaVuSans-6f" x="817.822266"/>
     <use xlink:href="#DejaVuSans-69" x="879.003906"/>
     <use xlink:href="#DejaVuSans-73" x="906.787109"/>
     <use xlink:href="#DejaVuSans-65" x="958.886719"/>
     <use xlink:href="#DejaVuSans-20" x="1020.410156"/>
     <use xlink:href="#DejaVuSans-76" x="1052.197266"/>
     <use xlink:href="#DejaVuSans-73" x="1111.376953"/>
     <use xlink:href="#DejaVuSans-20" x="1163.476562"/>
     <use xlink:href="#DejaVuSans-77" x="1195.263672"/>
     <use xlink:href="#DejaVuSans-61" x="1277.050781"/>
     <use xlink:href="#DejaVuSans-73" x="1338.330078"/>
     <use xlink:href="#DejaVuSans-68" x="1390.429688"/>
     <use xlink:href="#DejaVuSans-65" x="1453.808594"/>
     <use xlink:href="#DejaVuSans-72" x="1515.332031"/>
     <use xlink:href="#DejaVuSans-20" x="1556.445312"/>
     <use xlink:href="#DejaVuSans-73" x="1588.232422"/>
     <use xlink:href="#DejaVuSans-69" x="1640.332031"/>
     <use xlink:href="#DejaVuSans-7a" x="1668.115234"/>
     <use xlink:href="#DejaVuSans-65" x="1720.605469"/>
    </g>
   </g>
   <g id="legend_1">
    <g id="line2d_41">
     <path d="M 310.635938 187.425937 
L 320.635938 187.425937 
L 330.635938 187.425937 
" style="fill: none; stroke: #1f77b4; stroke-width: 1.5; stroke-linecap: square"/>
     <g>
      <use xlink:href="#m110390acfc" x="320.635938" y="187.425937" style="fill: #1f77b4; stroke: #1f77b4"/>
     </g>
    </g>
    <g id="text_10">
     <!-- Circ 0.3 µm -->
     <g transform="translate(338.635938 190.925937) scale(0.1 -0.1)">
      <defs>
       <path id="DejaVuSans-43" d="M 4122 4306 
L 4122 3641 
Q 3803 3938 3442 4084 
Q 3081 4231 2675 4231 
Q 1875 4231 1450 3742 
Q 1025 3253 1025 2328 
Q 1025 1406 1450 917 
Q 1875 428 2675 428 
Q 3081 428 3442 575 
Q 3803 722 4122 1019 
L 4122 359 
Q 3791 134 3420 21 
Q 3050 -91 2638 -91 
Q 1578 -91 968 557 
Q 359 1206 359 2328 
Q 359 3453 968 4101 
Q 1578 4750 2638 4750 
Q 3056 4750 3426 4639 
Q 3797 4528 4122 4306 
z
" transform="scale(0.015625)"/>
       <path id="DejaVuSans-63" d="M 3122 3366 
L 3122 2828 
Q 2878 2963 2633 3030 
Q 2388 3097 2138 3097 
Q 1578 3097 1268 2742 
Q 959 2388 959 1747 
Q 959 1106 1268 751 
Q 1578 397 2138 397 
Q 2388 397 2633 464 
Q 2878 531 3122 666 
L 3122 134 
Q 2881 22 2623 -34 
Q 2366 -91 2075 -91 
Q 1284 -91 818 406 
Q 353 903 353 1747 
Q 353 2603 823 3093 
Q 1294 3584 2113 3584 
Q 2378 3584 2631 3529 
Q 2884 3475 3122 3366 
z
" transform="scale(0.015625)"/>
       <path id="DejaVuSans-2e" d="M 684 794 
L 1344 794 
L 1344 0 
L 684 0 
L 684 794 
z
" transform="scale(0.015625)"/>
       <path id="DejaVuSans-33" d="M 2597 2516 
Q 3050 2419 3304 2112 
Q 3559 1806 3559 1356 
Q 3559 666 3084 287 
Q 2609 -91 1734 -91 
Q 1441 -91 1130 -33 
Q 819 25 488 141 
L 488 750 
Q 750 597 1062 519 
Q 1375 441 1716 441 
Q 2309 441 2620 675 
Q 2931 909 2931 1356 
Q 2931 1769 2642 2001 
Q 2353 2234 1838 2234 
L 1294 2234 
L 1294 2753 
L 1863 2753 
Q 2328 2753 2575 2939 
Q 2822 3125 2822 3475 
Q 2822 3834 2567 4026 
Q 2313 4219 1838 4219 
Q 1578 4219 1281 4162 
Q 984 4106 628 3988 
L 628 4550 
Q 988 4650 1302 4700 
Q 1616 4750 1894 4750 
Q 2613 4750 3031 4423 
Q 3450 4097 3450 3541 
Q 3450 3153 3228 2886 
Q 3006 2619 2597 2516 
z
" transform="scale(0.015625)"/>
      </defs>
      <use xlink:href="#DejaVuSans-43"/>
      <use xlink:href="#DejaVuSans-69" x="69.824219"/>
      <use xlink:href="#DejaVuSans-72" x="97.607422"/>
      <use xlink:href="#DejaVuSans-63" x="136.470703"/>
      <use xlink:href="#DejaVuSans-20" x="191.451172"/>
      <use xlink:href="#DejaVuSans-30" x="223.238281"/>
      <use xlink:href="#DejaVuSans-2e" x="286.861328"/>
      <use xlink:href="#DejaVuSans-33" x="318.648438"/>
      <use xlink:href="#DejaVuSans-20" x="382.271484"/>
      <use xlink:href="#DejaVuSans-b5" x="414.058594"/>
      <use xlink:href="#DejaVuSans-6d" x="477.681641"/>
     </g>
    </g>
    <g id="line2d_42">
     <path d="M 310.635938 202.104062 
L 320.635938 202.104062 
L 330.635938 202.104062 
" style="fill: none; stroke: #ff7f0e; stroke-width: 1.5; stroke-linecap: square"/>
     <g>
      <use xlink:href="#m40f743efb3" x="320.635938" y="202.104062" style="fill: #ff7f0e; stroke: #ff7f0e"/>
     </g>
    </g>
    <g id="text_11">
     <!-- Circ 1.0 µm -->
     <g transform="translate(338.635938 205.604062) scale(0.1 -0.1)">
      <use xlink:href="#DejaVuSans-43"/>
      <use xlink:href="#DejaVuSans-69" x="69.824219"/>
      <use xlink:href="#DejaVuSans-72" x="97.607422"/>
      <use xlink:href="#DejaVuSans-63" x="136.470703"/>
      <use xlink:href="#DejaVuSans-20" x="191.451172"/>
      <use xlink:href="#DejaVuSans-31" x="223.238281"/>
      <use xlink:href="#DejaVuSans-2e" x="286.861328"/>
      <use xlink:href="#DejaVuSans-30" x="318.648438"/>
      <use xlink:href="#DejaVuSans-20" x="382.271484"/>
      <use xlink:href="#DejaVuSans-b5" x="414.058594"/>
      <use xlink:href="#DejaVuSans-6d" x="477.681641"/>
     </g>
    </g>
    <g id="line2d_43">
     <path d="M 310.635938 216.782187 
L 320.635938 216.782187 
L 330.635938 216.782187 
" style="fill: none; stroke: #2ca02c; stroke-width: 1.5; stroke-linecap: square"/>
     <g>
      <use xlink:href="#m2d3b045b65" x="320.635938" y="216.782187" style="fill: #2ca02c; stroke: #2ca02c"/>
     </g>
    </g>
    <g id="text_12">
     <!-- Square 0.3 µm -->
     <g transform="translate(338.635938 220.282187) scale(0.1 -0.1)">
      <defs>
       <path id="DejaVuSans-71" d="M 947 1747 
Q 947 1113 1208 752 
Q 1469 391 1925 391 
Q 2381 391 2643 752 
Q 2906 1113 2906 1747 
Q 2906 2381 2643 2742 
Q 2381 3103 1925 3103 
Q 1469 3103 1208 2742 
Q 947 2381 947 1747 
z
M 2906 525 
Q 2725 213 2448 61 
Q 2172 -91 1784 -91 
Q 1150 -91 751 415 
Q 353 922 353 1747 
Q 353 2572 751 3078 
Q 1150 3584 1784 3584 
Q 2172 3584 2448 3432 
Q 2725 3281 2906 2969 
L 2906 3500 
L 3481 3500 
L 3481 -1331 
L 2906 -1331 
L 2906 525 
z
" transform="scale(0.015625)"/>
      </defs>
      <use xlink:href="#DejaVuSans-53"/>
      <use xlink:href="#DejaVuSans-71" x="63.476562"/>
      <use xlink:href="#DejaVuSans-75" x="126.953125"/>
      <use xlink:href="#DejaVuSans-61" x="190.332031"/>
      <use xlink:href="#DejaVuSans-72" x="251.611328"/>
      <use xlink:href="#DejaVuSans-65" x="290.474609"/>
      <use xlink:href="#DejaVuSans-20" x="351.998047"/>
      <use xlink:href="#DejaVuSans-30" x="383.785156"/>
      <use xlink:href="#DejaVuSans-2e" x="447.408203"/>
      <use xlink:href="#DejaVuSans-33" x="479.195312"/>
      <use xlink:href="#DejaVuSans-20" x="542.818359"/>
      <use xlink:href="#DejaVuSans-b5" x="574.605469"/>
      <use xlink:href="#DejaVuSans-6d" x="638.228516"/>
     </g>
    </g>
    <g id="line2d_44">
     <path d="M 310.635938 231.460312 
L 320.635938 231.460312 
L 330.635938 231.460312 
" style="fill: none; stroke: #d62728; stroke-width: 1.5; stroke-linecap: square"/>
     <g>
      <use xlink:href="#m28c441d108" x="320.635938" y="231.460312" style="fill: #d62728; stroke: #d62728"/>
     </g>
    </g>
    <g id="text_13">
     <!-- Square 1.0 µm -->
     <g transform="translate(338.635938 234.960312) scale(0.1 -0.1)">
      <use xlink:href="#DejaVuSans-53"/>
      <use xlink:href="#DejaVuSans-71" x="63.476562"/>
      <use xlink:href="#DejaVuSans-75" x="126.953125"/>
      <use xlink:href="#DejaVuSans-61" x="190.332031"/>
      <use xlink:href="#DejaVuSans-72" x="251.611328"/>
      <use xlink:href="#DejaVuSans-65" x="290.474609"/>
      <use xlink:href="#DejaVuSans-20" x="351.998047"/>
      <use xlink:href="#DejaVuSans-31" x="383.785156"/>
      <use xlink:href="#DejaVuSans-2e" x="447.408203"/>
      <use xlink:href="#DejaVuSans-30" x="479.195312"/>
      <use xlink:href="#DejaVuSans-20" x="542.818359"/>
      <use xlink:href="#DejaVuSans-b5" x="574.605469"/>
      <use xlink:href="#DejaVuSans-6d" x="638.228516"/>
     </g>
    </g>
   </g>
  </g>
 </g>
 <defs>
  <clipPath id="pe42762fc7f">
   <rect x="55.984685" y="26.88" width="365.215315" height="219.16"/>
  </clipPath>
 </defs>
</svg>
